<svg width="40" height="39" viewBox="0 0 40 39" fill="none" xmlns="http://www.w3.org/2000/svg">
<path d="M39.2049 31.6651L26.2051 13.8359V5.31296H29.2252V0.644043H10.7847V5.31769H13.8295V13.8406L0.804944 31.6651C0.317938 32.329 0.0412923 33.0979 0.00427429 33.8905C-0.0327437 34.6831 0.171242 35.4699 0.594652 36.1676C1.01806 36.8653 1.64515 37.4481 2.40958 37.8542C3.17401 38.2603 4.04736 38.4746 4.93723 38.4746H35.0568C35.9482 38.4733 36.8228 38.2575 37.5881 37.85C38.3534 37.4424 38.9811 36.8582 39.4049 36.159C39.8287 35.4598 40.0328 34.6716 39.9957 33.8775C39.9587 33.0835 39.6818 32.3131 39.1943 31.6477L39.2067 31.6651H39.2049ZM37.6047 35.2936C37.357 35.7006 36.9907 36.0404 36.5444 36.2773C36.0982 36.5142 35.5885 36.6394 35.0691 36.6398H4.93723C4.41557 36.6404 3.90342 36.5153 3.45508 36.2775C3.00674 36.0398 2.63891 35.6984 2.39059 35.2894C2.14227 34.8804 2.0227 34.4192 2.04457 33.9545C2.06643 33.4899 2.22892 33.0392 2.51479 32.6502L2.50772 32.6597L15.8559 14.3749V5.30981H24.1416V14.3797L37.4757 32.6644C37.7762 33.0601 37.9566 33.5487 37.9566 34.0752C37.9566 34.5244 37.8258 34.9469 37.5959 35.3125L37.603 35.2999L37.6047 35.2936Z" fill="#ff007f"/>
<path d="M25.4856 20.1128H14.5386L4.53948 33.8232C4.48765 33.8924 4.45825 33.973 4.45451 34.0562C4.45077 34.1393 4.47282 34.2218 4.51826 34.2945L4.51649 34.2929C4.6049 34.4301 4.76757 34.5215 4.955 34.5231H35.071C35.16 34.523 35.2474 34.5019 35.3242 34.4617C35.401 34.4215 35.4643 34.3638 35.5077 34.2945L35.5095 34.2929C35.5551 34.2205 35.5771 34.1381 35.5731 34.0551C35.569 33.9722 35.539 33.8918 35.4865 33.8232L35.4883 33.8248L25.4856 20.1128Z" fill="#ff007f"/>
</svg>
