<svg width="30" height="30" viewBox="0 0 40 40" fill="none" xmlns="http://www.w3.org/2000/svg">
<path d="M11 0C8.08262 0 5.28473 1.39002 3.22183 3.86426C1.15893 6.3385 0 9.69429 0 13.1934C0 14.3928 0.18 15.5922 0.44 16.7916H8.6L11.14 8.70765C11.74 6.78861 14.1 6.5967 14.86 8.70765L19 21.5892L20.18 18.1829C20.44 17.3913 21.14 16.7916 22 16.7916H39.56C39.82 15.5922 40 14.3928 40 13.1934C40 9.69429 38.8411 6.3385 36.7782 3.86426C34.7153 1.39002 31.9174 0 29 0C25.28 0 22 2.23089 20 5.61319C18 2.23089 14.72 0 11 0ZM2 20.3898C1.46957 20.3898 0.960859 20.6425 0.585786 21.0924C0.210714 21.5423 0 22.1524 0 22.7886C0 23.4248 0.210714 24.035 0.585786 24.4848C0.960859 24.9347 1.46957 25.1874 2 25.1874H6.88L18 38.3808C20 40.5397 20 40.5397 22 38.3808L33.12 25.1874H38C38.5304 25.1874 39.0391 24.9347 39.4142 24.4848C39.7893 24.035 40 23.4248 40 22.7886C40 22.1524 39.7893 21.5423 39.4142 21.0924C39.0391 20.6425 38.5304 20.3898 38 20.3898H22.8L20.94 25.907C20.14 28.3298 17.84 27.994 17.1 25.979L13 13.1934L11.08 18.7826C10.78 19.6942 10.1 20.3898 9.2 20.3898H2Z" fill="white"/>
</svg>
