<svg width="17" height="16" viewBox="0 0 17 16" fill="none" xmlns="http://www.w3.org/2000/svg">
<path d="M3 9.24695H4V10.2469H3V9.24695Z" fill="#2700D6"/>
<path d="M6 9.24695H7V10.2469H6V9.24695Z" fill="#2700D6"/>
<path d="M15.8401 7.44695H15.0001V14.7469H1.00013V3.74695H2.50013V2.74695H0.875129C0.758247 2.7489 0.642895 2.77386 0.535662 2.8204C0.428428 2.86694 0.331414 2.93415 0.250159 3.01819C0.168905 3.10223 0.105002 3.20146 0.0621014 3.3102C0.0192006 3.41894 -0.00185798 3.53507 0.000128526 3.65195V14.8419C-0.00185798 14.9588 0.0192006 15.075 0.0621014 15.1837C0.105002 15.2924 0.168905 15.3917 0.250159 15.4757C0.331414 15.5597 0.428428 15.627 0.535662 15.6735C0.642895 15.72 0.758247 15.745 0.875129 15.7469H15.1251C15.242 15.745 15.3574 15.72 15.4646 15.6735C15.5718 15.627 15.6688 15.5597 15.7501 15.4757C15.8314 15.3917 15.8953 15.2924 15.9382 15.1837C15.9811 15.075 16.0021 14.9588 16.0001 14.8419V7.43695L15.8401 7.44695Z" fill="#2700D6"/>
<path d="M3 6.74695H4V7.74695H3V6.74695Z" fill="#2700D6"/>
<path d="M6 6.74695H7V7.74695H6V6.74695Z" fill="#2700D6"/>
<path d="M9 9.24695H10V10.2469H9V9.24695Z" fill="#2700D6"/>
<path d="M12 9.24695H13V10.2469H12V9.24695Z" fill="#2700D6"/>
<path d="M3 11.7469H4V12.7469H3V11.7469Z" fill="#2700D6"/>
<path d="M6 11.7469H7V12.7469H6V11.7469Z" fill="#2700D6"/>
<path d="M9 11.7469H10V12.7469H9V11.7469Z" fill="#2700D6"/>
<path d="M12 11.7469H13V12.7469H12V11.7469Z" fill="#2700D6"/>
<path d="M4 4.74695C4.13261 4.74695 4.25979 4.69427 4.35355 4.6005C4.44732 4.50673 4.5 4.37956 4.5 4.24695V1.24695C4.5 1.11434 4.44732 0.987163 4.35355 0.893395C4.25979 0.799627 4.13261 0.746948 4 0.746948C3.86739 0.746948 3.74021 0.799627 3.64645 0.893395C3.55268 0.987163 3.5 1.11434 3.5 1.24695V4.24695C3.5 4.37956 3.55268 4.50673 3.64645 4.6005C3.74021 4.69427 3.86739 4.74695 4 4.74695Z" fill="#2700D6"/>
<path d="M12.4242 0.316977L9.56421 5.24698C9.49767 5.34464 9.45947 5.45882 9.45385 5.57687C9.44823 5.69491 9.4754 5.8122 9.53235 5.91575C9.5893 6.0193 9.67381 6.10506 9.77651 6.16352C9.87921 6.22199 9.9961 6.25087 10.1142 6.24698H15.8392C15.9573 6.25087 16.0742 6.22199 16.1769 6.16352C16.2796 6.10506 16.3641 6.0193 16.4211 5.91575C16.478 5.8122 16.5052 5.69491 16.4996 5.57687C16.4939 5.45882 16.4557 5.34464 16.3892 5.24698L13.5292 0.316977C13.4728 0.220505 13.3921 0.140483 13.2952 0.0848718C13.1983 0.029261 13.0885 0 12.9767 0C12.865 0 12.7552 0.029261 12.6582 0.0848718C12.5613 0.140483 12.4806 0.220505 12.4242 0.316977Z" fill="#FF0000"/>
</svg>
