<svg width="66" height="70" viewBox="0 0 66 70" fill="none" xmlns="http://www.w3.org/2000/svg">
<path d="M56.875 33.9404C58.2422 34.8747 59.4613 35.9342 60.5322 37.1191C61.6032 38.304 62.526 39.6029 63.3008 41.0156C64.0755 42.4284 64.6452 43.9209 65.0098 45.4932C65.3743 47.0654 65.5794 48.6719 65.625 50.3125C65.625 53.0241 65.1123 55.5762 64.0869 57.9688C63.0615 60.3613 61.6488 62.4463 59.8486 64.2236C58.0485 66.001 55.9635 67.4023 53.5938 68.4277C51.224 69.4531 48.6719 69.9772 45.9375 70C43.8639 70 41.8587 69.6924 39.9219 69.0771C37.985 68.4619 36.2077 67.5732 34.5898 66.4111C32.972 65.249 31.5365 63.859 30.2832 62.2412C29.0299 60.6234 28.0615 58.8346 27.3779 56.875H0V4.375H8.75V0H13.125V4.375H43.75V0H48.125V4.375H56.875V33.9404ZM4.375 8.75V17.5H52.5V8.75H48.125V13.125H43.75V8.75H13.125V13.125H8.75V8.75H4.375ZM26.3525 52.5C26.2842 51.7936 26.25 51.0645 26.25 50.3125C26.25 48.3529 26.5234 46.4502 27.0703 44.6045C27.6172 42.7588 28.4489 41.0156 29.5654 39.375H26.25V35H30.625V37.9395C31.5592 36.7773 32.596 35.752 33.7354 34.8633C34.8747 33.9746 36.1051 33.2113 37.4268 32.5732C38.7484 31.9352 40.127 31.4567 41.5625 31.1377C42.998 30.8187 44.4564 30.6478 45.9375 30.625C48.2161 30.625 50.4036 31.001 52.5 31.7529V21.875H4.375V52.5H26.3525ZM45.9375 65.625C48.0566 65.625 50.0391 65.2262 51.8848 64.4287C53.7305 63.6312 55.3483 62.5374 56.7383 61.1475C58.1283 59.7575 59.222 58.1396 60.0195 56.2939C60.8171 54.4482 61.2272 52.4544 61.25 50.3125C61.25 48.1934 60.8512 46.2109 60.0537 44.3652C59.2562 42.5195 58.1624 40.9017 56.7725 39.5117C55.3825 38.1217 53.7646 37.028 51.9189 36.2305C50.0732 35.4329 48.0794 35.0228 45.9375 35C43.8184 35 41.8359 35.3988 39.9902 36.1963C38.1445 36.9938 36.5267 38.0876 35.1367 39.4775C33.7467 40.8675 32.653 42.4854 31.8555 44.3311C31.0579 46.1768 30.6478 48.1706 30.625 50.3125C30.625 52.4316 31.0238 54.4141 31.8213 56.2598C32.6188 58.1055 33.7126 59.7233 35.1025 61.1133C36.4925 62.5033 38.1104 63.597 39.9561 64.3945C41.8018 65.1921 43.7956 65.6022 45.9375 65.625ZM48.125 48.125H54.6875V52.5H43.75V39.375H48.125V48.125ZM8.75 35H13.125V39.375H8.75V35ZM17.5 35H21.875V39.375H17.5V35ZM17.5 26.25H21.875V30.625H17.5V26.25ZM17.5 43.75H21.875V48.125H17.5V43.75ZM30.625 30.625H26.25V26.25H30.625V30.625ZM39.375 30.625H35V26.25H39.375V30.625ZM8.75 26.25H13.125V30.625H8.75V26.25Z" fill="#1100FF"/>
</svg>
