<svg width="15" height="24" viewBox="0 0 15 24" fill="none" xmlns="http://www.w3.org/2000/svg">
<g clip-path="url(#clip0_350_923)">
<path d="M4.50022 3C4.50022 2.20435 4.81629 1.44129 5.3789 0.87868C5.94151 0.316071 6.70457 0 7.50022 0C8.29587 0 9.05893 0.316071 9.62154 0.87868C10.1841 1.44129 10.5002 2.20435 10.5002 3C10.5002 3.79565 10.1841 4.55871 9.62154 5.12132C9.05893 5.68393 8.29587 6 7.50022 6C6.70457 6 5.94151 5.68393 5.3789 5.12132C4.81629 4.55871 4.50022 3.79565 4.50022 3ZM6.75022 18V22.5C6.75022 23.3297 6.0799 24 5.25022 24C4.42053 24 3.75022 23.3297 3.75022 22.5V13.4906L2.77053 15.0469C2.3299 15.75 1.40178 15.9562 0.703342 15.5156C0.00490493 15.075 -0.21072 14.1516 0.229905 13.4531L2.10022 10.4859C3.2674 8.625 5.30647 7.5 7.50022 7.5C9.69397 7.5 11.733 8.625 12.9002 10.4813L14.7705 13.4531C15.2112 14.1562 15.0002 15.0797 14.3018 15.5203C13.6033 15.9609 12.6752 15.75 12.2346 15.0516L11.2502 13.4906V22.5C11.2502 23.3297 10.5799 24 9.75022 24C8.92053 24 8.25022 23.3297 8.25022 22.5V18H6.75022Z" fill="black"/>
</g>
<defs>
<clipPath id="clip0_350_923">
<rect width="15" height="24" fill="white"/>
</clipPath>
</defs>
</svg>
