<svg width="24" height="24" viewBox="0 0 24 24" fill="none" xmlns="http://www.w3.org/2000/svg">
<path d="M15.1306 3C15.1306 2.20435 14.8008 1.44129 14.2137 0.87868C13.6266 0.316071 12.8304 0 12.0001 0C11.1699 0 10.3737 0.316071 9.78659 0.87868C9.19952 1.44129 8.8697 2.20435 8.8697 3C8.8697 3.79565 9.19952 4.55871 9.78659 5.12132C10.3737 5.68393 11.1699 6 12.0001 6C12.8304 6 13.6266 5.68393 14.2137 5.12132C14.8008 4.55871 15.1306 3.79565 15.1306 3ZM8.4784 18.75V22.5C8.4784 23.3297 9.17786 24 10.0436 24C10.9094 24 11.6088 23.3297 11.6088 22.5V18.75H12.3914V22.5C12.3914 23.3297 13.0909 24 13.9567 24C14.8224 24 15.5219 23.3297 15.5219 22.5V18.75H16.3925C16.9257 18.75 17.3023 18.2484 17.136 17.7609L15.6148 13.3828L17.0137 15.1547C17.5371 15.8156 18.5202 15.9422 19.205 15.4453C19.8898 14.9484 20.0268 14.0063 19.5083 13.3453L16.6273 9.70312C15.5317 8.31562 13.8148 7.5 12.0001 7.5C10.1855 7.5 8.46862 8.31562 7.37297 9.70312L4.49199 13.3453C3.96862 14.0063 4.10557 14.9484 4.79525 15.4453C5.48492 15.9422 6.46807 15.8156 6.98655 15.1547L8.39036 13.3828L6.86427 17.7609C6.69797 18.2484 7.0746 18.75 7.60775 18.75H8.4784Z" fill="black"/>
</svg>
