<svg width="15" height="24" viewBox="0 0 15 24" fill="none" xmlns="http://www.w3.org/2000/svg">
<g clip-path="url(#clip0_350_925)">
<path d="M10.5002 3C10.5002 2.20435 10.1841 1.44129 9.62154 0.87868C9.05893 0.316071 8.29586 0 7.50021 0C6.70457 0 5.9415 0.316071 5.37889 0.87868C4.81628 1.44129 4.50021 2.20435 4.50021 3C4.50021 3.79565 4.81628 4.55871 5.37889 5.12132C5.9415 5.68393 6.70457 6 7.50021 6C8.29586 6 9.05893 5.68393 9.62154 5.12132C10.1841 4.55871 10.5002 3.79565 10.5002 3ZM4.12521 18.75V22.5C4.12521 23.3297 4.79553 24 5.62521 24C6.4549 24 7.12521 23.3297 7.12521 22.5V18.75H7.87521V22.5C7.87521 23.3297 8.54553 24 9.37521 24C10.2049 24 10.8752 23.3297 10.8752 22.5V18.75H11.7096C12.2205 18.75 12.5815 18.2484 12.4221 17.7609L10.9643 13.3828L12.3049 15.1547C12.8065 15.8156 13.7487 15.9422 14.4049 15.4453C15.0612 14.9484 15.1924 14.0063 14.6955 13.3453L11.9346 9.70312C10.8846 8.31562 9.23928 7.5 7.50021 7.5C5.76115 7.5 4.11584 8.31562 3.06584 9.70312L0.304902 13.3453C-0.19666 14.0063 -0.0654105 14.9484 0.595527 15.4453C1.25646 15.9422 2.19865 15.8156 2.69553 15.1547L4.04084 13.3828L2.57834 17.7609C2.41896 18.2484 2.7799 18.75 3.29084 18.75H4.12521Z" fill="black"/>
</g>
<defs>
<clipPath id="clip0_350_925">
<rect width="15" height="24" fill="white"/>
</clipPath>
</defs>
</svg>
