<svg width="24" height="24" viewBox="0 0 24 24" fill="none" xmlns="http://www.w3.org/2000/svg">
<path d="M9.07249 3C9.07249 2.20435 9.40626 1.44129 10.0004 0.87868C10.5945 0.316071 11.4003 0 12.2405 0C13.0807 0 13.8865 0.316071 14.4806 0.87868C15.0747 1.44129 15.4085 2.20435 15.4085 3C15.4085 3.79565 15.0747 4.55871 14.4806 5.12132C13.8865 5.68393 13.0807 6 12.2405 6C11.4003 6 10.5945 5.68393 10.0004 5.12132C9.40626 4.55871 9.07249 3.79565 9.07249 3ZM11.4485 18V22.5C11.4485 23.3297 10.7406 24 9.86449 24C8.98834 24 8.28049 23.3297 8.28049 22.5V13.4906L7.24594 15.0469C6.78064 15.75 5.80054 15.9562 5.06299 15.5156C4.32544 15.075 4.09774 14.1516 4.56304 13.4531L6.53809 10.4859C7.77064 8.625 9.92389 7.5 12.2405 7.5C14.5571 7.5 16.7103 8.625 17.9429 10.4813L19.9179 13.4531C20.3832 14.1562 20.1605 15.0797 19.4229 15.5203C18.6854 15.9609 17.7053 15.75 17.24 15.0516L16.2005 13.4906V22.5C16.2005 23.3297 15.4926 24 14.6165 24C13.7403 24 13.0325 23.3297 13.0325 22.5V18H11.4485Z" fill="black"/>
</svg>
