<svg width="70" height="66" viewBox="0 0 70 66" fill="none" xmlns="http://www.w3.org/2000/svg">
<path d="M61.0094 3.34298C61.3635 2.97626 61.5595 2.4851 61.5551 1.97529C61.5507 1.46547 61.3462 0.977794 60.9857 0.617287C60.6252 0.25678 60.1375 0.0522894 59.6277 0.0478593C59.1179 0.0434291 58.6267 0.239414 58.26 0.593602L53.8015 5.0521L49.343 0.593602C49.1636 0.407892 48.9491 0.259763 48.7118 0.157859C48.4746 0.0559556 48.2195 0.00231689 47.9613 7.34147e-05C47.7031 -0.00217006 47.4471 0.0470261 47.2081 0.144792C46.9692 0.242558 46.7521 0.386935 46.5695 0.5695C46.3869 0.752065 46.2426 0.96916 46.1448 1.20812C46.047 1.44708 45.9978 1.70312 46.0001 1.96129C46.0023 2.21947 46.056 2.47461 46.1579 2.71183C46.2598 2.94906 46.4079 3.16361 46.5936 3.34298L51.0521 7.80148L46.5936 12.26C46.2394 12.6267 46.0434 13.1179 46.0479 13.6277C46.0523 14.1375 46.2568 14.6252 46.6173 14.9857C46.9778 15.3462 47.4655 15.5507 47.9753 15.5551C48.4851 15.5595 48.9763 15.3635 49.343 15.0094L53.8015 10.5509L58.26 15.0094C58.6248 15.3739 59.1196 15.5787 59.6354 15.5785C60.1511 15.5783 60.6457 15.3732 61.0103 15.0084C61.3749 14.6435 61.5796 14.1488 61.5795 13.633C61.5793 13.1172 61.3742 12.6226 61.0094 12.258L56.5509 7.80148L61.0094 3.34298Z" fill="#FF0000"/>
<path fill-rule="evenodd" clip-rule="evenodd" d="M1.33084 35.7858L7.77846 37.9343V54.3567C7.77847 54.761 7.90451 55.1552 8.13905 55.4846C8.37359 55.8139 8.70495 56.0619 9.08703 56.1941L34.3486 64.9381C34.7481 65.0801 35.1831 65.0876 35.5872 64.9595L35.6144 64.9517L35.6436 64.942L60.913 56.1941C61.295 56.0619 61.6264 55.8139 61.861 55.4846C62.0955 55.1552 62.2215 54.761 62.2215 54.3567V37.9343L68.6692 35.7858C68.9666 35.6869 69.2357 35.5175 69.4535 35.2922C69.6714 35.0668 69.8315 34.7922 69.9203 34.4916C70.0091 34.191 70.024 33.8734 69.9635 33.5659C69.9031 33.2583 69.7692 32.9699 69.5733 32.7253L61.7957 23.0033C61.5651 22.7161 61.2576 22.5003 60.9091 22.3811L35.6358 13.6313C35.2239 13.4888 34.7761 13.4888 34.3642 13.6313L9.09092 22.3811C8.74241 22.5003 8.43492 22.7161 8.20428 23.0033L0.426694 32.7253C0.230773 32.9699 0.0968975 33.2583 0.036474 33.5659C-0.0239495 33.8734 -0.00912947 34.191 0.0796713 34.4916C0.168472 34.7922 0.328621 35.0668 0.546473 35.2922C0.764326 35.5175 1.03342 35.6869 1.33084 35.7858ZM29.7871 43.8044L33.0556 39.1379V60.3765L11.6672 52.9723V39.2293L27.5802 44.5336C27.9777 44.6657 28.4073 44.6659 28.8049 44.5342C29.2026 44.4025 29.5471 44.1478 29.7871 43.8044ZM15.6669 24.2185L35 30.9112L54.3331 24.2185L35 17.5259L15.6669 24.2185ZM40.2129 43.8064L36.9444 39.136V60.3765L58.3328 52.9723V39.2293L42.4198 44.5336C42.0223 44.6657 41.5927 44.6659 41.1951 44.5342C40.7974 44.4025 40.4529 44.1458 40.2129 43.8025M10.3839 26.5052L5.20602 32.978L15.9216 36.5499L27.4324 40.3862L31.9298 33.9639L31.6673 33.8725L10.3839 26.5052ZM64.794 32.978L59.6161 26.5032L38.0702 33.9639L42.5676 40.3862L64.794 32.978Z" fill="#1100FF"/>
</svg>
