<svg width="24" height="26" viewBox="0 0 24 26" fill="none" xmlns="http://www.w3.org/2000/svg">
<path fill-rule="evenodd" clip-rule="evenodd" d="M5.879 3.04789C5 3.97754 5 5.47578 5 8.47013V16.9407C5 19.9351 5 21.4333 5.879 22.363C6.757 23.2937 8.172 23.2937 11 23.2937H13C15.828 23.2937 17.243 23.2937 18.121 22.363C19 21.4333 19 19.9351 19 16.9407V8.47013C19 5.47578 19 3.97754 18.121 3.04789C17.243 2.11719 15.828 2.11719 13 2.11719H11C8.172 2.11719 6.757 2.11719 5.879 3.04789ZM8.25 17.9995C8.25 17.7889 8.32902 17.5869 8.46967 17.438C8.61032 17.2891 8.80109 17.2054 9 17.2054H12C12.1989 17.2054 12.3897 17.2891 12.5303 17.438C12.671 17.5869 12.75 17.7889 12.75 17.9995C12.75 18.2102 12.671 18.4121 12.5303 18.5611C12.3897 18.71 12.1989 18.7937 12 18.7937H9C8.80109 18.7937 8.61032 18.71 8.46967 18.5611C8.32902 18.4121 8.25 18.2102 8.25 17.9995ZM9 12.9701C8.80109 12.9701 8.61032 13.0538 8.46967 13.2027C8.32902 13.3516 8.25 13.5536 8.25 13.7642C8.25 13.9749 8.32902 14.1768 8.46967 14.3258C8.61032 14.4747 8.80109 14.5584 9 14.5584H15C15.1989 14.5584 15.3897 14.4747 15.5303 14.3258C15.671 14.1768 15.75 13.9749 15.75 13.7642C15.75 13.5536 15.671 13.3516 15.5303 13.2027C15.3897 13.0538 15.1989 12.9701 15 12.9701H9ZM8.25 9.52895C8.25 9.31834 8.32902 9.11635 8.46967 8.96743C8.61032 8.8185 8.80109 8.73483 9 8.73483H15C15.1989 8.73483 15.3897 8.8185 15.5303 8.96743C15.671 9.11635 15.75 9.31834 15.75 9.52895C15.75 9.73956 15.671 9.94155 15.5303 10.0905C15.3897 10.2394 15.1989 10.3231 15 10.3231H9C8.80109 10.3231 8.61032 10.2394 8.46967 10.0905C8.32902 9.94155 8.25 9.73956 8.25 9.52895Z" fill="#0E868C"/>
<path opacity="0.5" d="M5.235 4.29688C5 5.23182 5 6.54052 5 8.47076V16.9413C5 18.8716 5 20.1792 5.235 21.1152L5 21.0962C4.025 20.9945 3.369 20.7648 2.879 20.2459C2 19.3163 2 17.8181 2 14.8237V10.5884C2 7.59299 2 6.09582 2.879 5.16617C3.369 4.64735 4.025 4.41758 5 4.31593L5.235 4.29688ZM18.765 21.1152C19 20.1792 19 18.8705 19 16.9413V8.47076C19 6.54052 19 5.23182 18.765 4.29688L19 4.31593C19.975 4.41758 20.631 4.64735 21.121 5.16617C22 6.09582 22 7.59193 22 10.5873V14.8226C22 17.8191 22 19.3152 21.121 20.2459C20.631 20.7648 19.975 20.9945 19 21.0962L18.765 21.1152Z" fill="#0E868C"/>
</svg>
