<svg width="50" height="50" viewBox="0 0 50 50" fill="none" xmlns="http://www.w3.org/2000/svg">
<g clip-path="url(#clip0_5_1583)">
<path d="M22.7068 5C26.0318 4.99978 29.2896 5.93564 32.1075 7.70048C34.9253 9.46532 37.1894 11.9878 38.6406 14.9794C40.0918 17.9709 40.6715 21.3105 40.3133 24.6161C39.9551 27.9217 38.6735 31.0596 36.6152 33.6708L44.2235 41.2792C44.603 41.6721 44.813 42.1983 44.8082 42.7446C44.8035 43.2908 44.5844 43.8134 44.1981 44.1996C43.8118 44.5859 43.2893 44.805 42.7431 44.8097C42.1968 44.8145 41.6706 44.6045 41.2777 44.225L33.6693 36.6167C31.4515 38.3645 28.8479 39.5566 26.0756 40.0936C23.3034 40.6305 20.4429 40.4967 17.7329 39.7033C15.0229 38.91 12.5419 37.48 10.4969 35.5328C8.45192 33.5855 6.90226 31.1775 5.9772 28.5095C5.05214 25.8416 4.77851 22.9911 5.17914 20.1959C5.57976 17.4007 6.64303 14.7419 8.28024 12.4412C9.91744 10.1405 12.0811 8.26463 14.5907 6.9702C17.1003 5.67576 19.8831 5.00024 22.7068 5ZM22.7068 9.16667C19.1154 9.16667 15.671 10.5934 13.1314 13.1329C10.5919 15.6725 9.16516 19.1169 9.16516 22.7083C9.16516 26.2998 10.5919 29.7442 13.1314 32.2837C15.671 34.8233 19.1154 36.25 22.7068 36.25C26.2983 36.25 29.7427 34.8233 32.2822 32.2837C34.8218 29.7442 36.2485 26.2998 36.2485 22.7083C36.2485 19.1169 34.8218 15.6725 32.2822 13.1329C29.7427 10.5934 26.2983 9.16667 22.7068 9.16667ZM22.7068 11.25C25.7458 11.25 28.6602 12.4572 30.8091 14.6061C32.9579 16.7549 34.1652 19.6694 34.1652 22.7083C34.1652 25.7473 32.9579 28.6617 30.8091 30.8106C28.6602 32.9595 25.7458 34.1667 22.7068 34.1667C19.6679 34.1667 16.7534 32.9595 14.6046 30.8106C12.4557 28.6617 11.2485 25.7473 11.2485 22.7083C11.2485 19.6694 12.4557 16.7549 14.6046 14.6061C16.7534 12.4572 19.6679 11.25 22.7068 11.25Z" fill="#FF007F"/>
</g>
<defs>
<clipPath id="clip0_5_1583">
<rect width="50" height="50" fill="#FF007F"/>
</clipPath>
</defs>
</svg>
