<svg width="24" height="24" viewBox="0 0 24 24" fill="none" xmlns="http://www.w3.org/2000/svg">
<path d="M14.3911 5.4407C14.7603 5.4407 15.1001 5.51202 15.4106 5.65466C16.3322 6.11852 16.8763 7.0001 16.8832 7.98314V14.7546C16.7104 15.8311 15.4782 15.5384 15.4484 14.7546V8.36074C15.3386 7.99612 14.6345 8.1473 14.6177 8.36074V23.0364C14.4387 24.535 12.5022 24.0951 12.4529 23.0113V14.0246C12.329 13.445 11.5141 13.7083 11.4963 14.0498C11.5308 17.0368 11.5215 20.0241 11.5215 23.0113C11.3283 24.5021 9.40131 24.1207 9.35659 23.0364L9.33143 8.36074C9.21857 8.00398 8.56617 8.14082 8.55105 8.36074V14.7546C8.37817 15.8311 7.14605 15.5384 7.11621 14.7546V7.98314C7.13363 7.04202 7.47855 6.0992 8.29933 5.65466C8.56785 5.51199 8.8951 5.44067 9.28107 5.44068L14.3911 5.4407ZM14.3657 2.36554C14.3657 3.672 13.3066 4.7311 12.0002 4.7311C10.6937 4.7311 9.63463 3.672 9.63463 2.36554C9.63461 1.0591 10.6937 0 12.0001 0C13.3066 0 14.3657 1.0591 14.3657 2.36554Z" fill="black"/>
</svg>
