<svg width="30" height="30" viewBox="0 0 50 50" fill="none" xmlns="http://www.w3.org/2000/svg">
<g clip-path="url(#clip0_5_1542)">
  background-color: #FF007F;
<path d="M15.625 31.25H16.7969V32.8125C16.7969 33.6758 17.4961 34.375 18.3594 34.375H22.2656C23.1289 34.375 23.8281 33.6758 23.8281 32.8125V31.25H25C26.7256 31.25 28.125 29.8506 28.125 28.125V6.25C28.125 4.52441 26.7256 3.125 25 3.125V1.5625C25 0.699219 24.3008 0 23.4375 0H17.1875C16.3242 0 15.625 0.699219 15.625 1.5625V3.125C13.8994 3.125 12.5 4.52441 12.5 6.25V28.125C12.5 29.8506 13.8994 31.25 15.625 31.25ZM45.3125 43.75H45.1865C48.168 40.4287 50 36.0547 50 31.25C50 20.9102 41.5898 12.5 31.25 12.5V18.75C38.1426 18.75 43.75 24.3574 43.75 31.25C43.75 38.1426 38.1426 43.75 31.25 43.75H4.6875C2.09863 43.75 0 45.8486 0 48.4375C0 49.3008 0.699219 50 1.5625 50H48.4375C49.3008 50 50 49.3008 50 48.4375C50 45.8486 47.9014 43.75 45.3125 43.75ZM10.1562 40.625H30.4688C30.9004 40.625 31.25 40.2754 31.25 39.8438V38.2812C31.25 37.8496 30.9004 37.5 30.4688 37.5H10.1562C9.72461 37.5 9.375 37.8496 9.375 38.2812V39.8438C9.375 40.2754 9.72461 40.625 10.1562 40.625Z" fill="white"/>
</g>
<defs>
<clipPath id="clip0_5_1542">
<rect width="50" height="50" fill="white"/>
</clipPath>
</defs>
</svg>
