<svg width="27" height="30" viewBox="0 0 27 30" fill="none" xmlns="http://www.w3.org/2000/svg">
<path d="M4.5 11.9779C4.49918 10.1079 5.08085 8.28411 6.16418 6.75992C7.24751 5.23573 8.7787 4.08683 10.545 3.47286C10.4766 3.04432 10.502 2.60605 10.6194 2.18828C10.7368 1.7705 10.9435 1.38318 11.2251 1.05302C11.5067 0.72287 11.8567 0.457747 12.2507 0.275947C12.6447 0.0941477 13.0735 0 13.5075 0C13.9415 0 14.3703 0.0941477 14.7643 0.275947C15.1583 0.457747 15.5082 0.72287 15.7899 1.05302C16.0715 1.38318 16.2782 1.7705 16.3956 2.18828C16.513 2.60605 16.5384 3.04432 16.47 3.47286C18.2335 4.08934 19.7614 5.23932 20.8419 6.7633C21.9224 8.28727 22.5019 10.1097 22.5 11.9779V20.9779L27 23.9779V25.4779H0V23.9779L4.5 20.9779V11.9779ZM16.5 26.9779C16.5 27.7735 16.1839 28.5366 15.6213 29.0992C15.0587 29.6618 14.2956 29.9779 13.5 29.9779C12.7044 29.9779 11.9413 29.6618 11.3787 29.0992C10.8161 28.5366 10.5 27.7735 10.5 26.9779H16.5Z" fill="white"/>
</svg>
