<svg width="55" height="56" viewBox="0 0 55 56" fill="none" xmlns="http://www.w3.org/2000/svg">
<path fill-rule="evenodd" clip-rule="evenodd" d="M33.5413 2.6988C32.038 4.67166 31.1264 6.99755 30.9041 9.42696C30.6819 11.8564 31.1575 14.2976 32.2799 16.4889C33.4023 18.6801 35.1291 20.5387 37.2751 21.8651C39.4211 23.1915 41.9054 23.9359 44.4614 24.0182V24.0463C44.5016 24.5529 44.5419 25.0723 44.5955 25.5737C45.2314 31.3225 46.6803 35.2702 48.0728 37.8619C48.9984 39.5888 49.908 40.735 50.5519 41.4283C50.8346 41.734 51.1394 42.0204 51.4642 42.2854L51.491 42.3007C51.8353 42.539 52.0915 42.8751 52.2229 43.2609C52.3544 43.6467 52.3542 44.0623 52.2224 44.448C52.0907 44.8337 51.8342 45.1696 51.4897 45.4076C51.1452 45.6456 50.7305 45.7733 50.3051 45.7725H2.00992C1.58547 45.772 1.17204 45.6436 0.828759 45.4056C0.485481 45.1675 0.229933 44.8321 0.0986587 44.4472C-0.0326155 44.0623 -0.0328923 43.6476 0.097868 43.2626C0.228628 42.8775 0.483729 42.5418 0.826689 42.3033L0.848154 42.2854L1.01987 42.1472C1.18085 42.0091 1.44111 41.7763 1.76308 41.4283C2.40701 40.7375 3.31657 39.5914 4.24223 37.8644C6.09355 34.4131 8.04682 28.5799 8.04682 19.2928C8.04682 14.4804 9.92496 9.84193 13.3056 6.4034C16.6917 2.95976 21.3119 1 26.1575 1C27.1842 1 28.1975 1.08613 29.1974 1.2584C29.836 1.36841 31.9288 1.99011 33.5413 2.6988Z" fill="white"/>
<path fill-rule="evenodd" clip-rule="evenodd" d="M34.8773 10.5941C34.8773 8.0496 35.9373 5.6093 37.8242 3.81005C39.7111 2.01081 42.2703 1 44.9388 1C47.6072 1 50.1664 2.01081 52.0533 3.81005C53.9402 5.6093 55.0002 8.0496 55.0002 10.5941C55.0002 13.1386 53.9402 15.5789 52.0533 17.3782C50.1664 19.1774 47.6072 20.1882 44.9388 20.1882C42.2703 20.1882 39.7111 19.1774 37.8242 17.3782C35.9373 15.5789 34.8773 13.1386 34.8773 10.5941ZM20.5068 49.8686C20.7354 49.7422 20.988 49.6601 21.2499 49.6268C21.5119 49.5935 21.7782 49.6098 22.0336 49.6746C22.2889 49.7395 22.5284 49.8517 22.7383 50.0048C22.9482 50.1579 23.1244 50.349 23.2569 50.567C23.5518 51.0514 23.9749 51.4533 24.4839 51.7328C24.9929 52.0122 25.57 52.1593 26.1573 52.1593C26.7446 52.1593 27.3217 52.0122 27.8307 51.7328C28.3397 51.4533 28.7628 51.0514 29.0577 50.567C29.1904 50.349 29.3668 50.158 29.5768 50.0049C29.7869 49.8519 30.0265 49.7398 30.282 49.6751C30.5375 49.6103 30.8039 49.5942 31.0659 49.6276C31.3279 49.661 31.5805 49.7434 31.8092 49.8699C32.0379 49.9963 32.2382 50.1646 32.3987 50.3649C32.5592 50.5652 32.6767 50.7937 32.7446 51.0373C32.8125 51.2809 32.8294 51.5349 32.7943 51.7848C32.7593 52.0346 32.673 52.2755 32.5403 52.4935C31.8918 53.56 30.9608 54.4453 29.8406 55.0607C28.7203 55.6761 27.4502 56 26.1573 56C24.8645 56 23.5943 55.6761 22.4741 55.0607C21.3538 54.4453 20.4228 53.56 19.7743 52.4935C19.6414 52.2754 19.5549 52.0344 19.5198 51.7843C19.4846 51.5342 19.5016 51.28 19.5696 51.0362C19.6377 50.7924 19.7554 50.5637 19.9163 50.3634C20.0771 50.163 20.2777 49.9949 20.5068 49.8686Z" fill="white"/>
<circle cx="44.5" cy="10.5" r="10.5" fill="#FF0000"/>
</svg>
