<svg width="24" height="24" viewBox="0 0 24 24" fill="none" xmlns="http://www.w3.org/2000/svg">
<path fill-rule="evenodd" clip-rule="evenodd" d="M16 14C16 13.6022 16.158 13.2206 16.4393 12.9393C16.7206 12.658 17.1022 12.5 17.5 12.5C17.8978 12.5 18.2794 12.658 18.5607 12.9393C18.842 13.2206 19 13.6022 19 14V21.5C19 21.6326 18.9473 21.7598 18.8536 21.8536C18.7598 21.9473 18.6326 22 18.5 22C18.3674 22 18.2402 21.9473 18.1464 21.8536C18.0527 21.7598 18 21.6326 18 21.5V14C18 13.8674 17.9473 13.7402 17.8536 13.6464C17.7598 13.5527 17.6326 13.5 17.5 13.5C17.3674 13.5 17.2402 13.5527 17.1464 13.6464C17.0527 13.7402 17 13.8674 17 14V14.1715C17 14.3041 16.9473 14.4313 16.8536 14.5251C16.7598 14.6188 16.6326 14.6715 16.5 14.6715C16.3674 14.6715 16.2402 14.6188 16.1464 14.5251C16.0527 14.4313 16 14.3041 16 14.1715V14Z" fill="black"/>
<path fill-rule="evenodd" clip-rule="evenodd" d="M11.0003 6.5C11.597 6.5 12.1693 6.26295 12.5913 5.84099C13.0132 5.41903 13.2503 4.84674 13.2503 4.25C13.2503 3.65326 13.0132 3.08097 12.5913 2.65901C12.1693 2.23705 11.597 2 11.0003 2C10.4035 2 9.83123 2.23705 9.40927 2.65901C8.98732 3.08097 8.75026 3.65326 8.75026 4.25C8.75026 4.84674 8.98732 5.41903 9.40927 5.84099C9.83123 6.26295 10.4035 6.5 11.0003 6.5ZM5.95976 8.5005C6.60526 7.8705 7.52476 7.5 8.62776 7.5H12.2878C14.7743 7.5 16.2598 8.361 17.0978 9.3795C17.4277 9.77876 17.681 10.2356 17.8448 10.727C17.9178 10.947 17.9748 11.1735 17.9993 11.4035V11.411L18.0003 11.414V11.417C18.0478 11.967 17.6228 12.4505 17.0508 12.497C16.4838 12.542 15.9848 12.14 15.9303 11.5965V11.5955L15.9228 11.5525C15.9077 11.4791 15.8885 11.4067 15.8653 11.3355C15.7776 11.0749 15.6428 10.8325 15.4678 10.6205C15.1608 10.2475 14.5793 9.7795 13.4348 9.588C13.4391 9.61833 13.4413 9.6495 13.4413 9.6815C13.4413 10.8965 14.8828 16.251 15.3533 17.968C15.3719 18.0354 15.376 18.106 15.3655 18.1751C15.3549 18.2442 15.3299 18.3104 15.2921 18.3692C15.2542 18.428 15.2044 18.4781 15.1458 18.5163C15.0873 18.5546 15.0213 18.58 14.9523 18.591C11.9503 19.0725 10.0523 19.0885 7.04926 18.594C6.9802 18.5827 6.91431 18.5569 6.8559 18.5184C6.7975 18.4798 6.7479 18.4294 6.71037 18.3703C6.67284 18.3112 6.64821 18.2449 6.63811 18.1757C6.62801 18.1064 6.63266 18.0358 6.65176 17.9685C6.88026 17.1585 7.33026 15.5375 7.73576 13.916C7.01226 13.774 6.39926 13.456 5.93226 12.997C5.63227 12.7035 5.39498 12.3522 5.23478 11.9644C5.07457 11.5765 4.99479 11.1601 5.00026 10.7405C5.00452 10.3222 5.09154 9.90883 5.25631 9.52429C5.42107 9.13975 5.66032 8.79163 5.96026 8.5M7.43926 9.905C7.65276 9.697 8.00776 9.51 8.57926 9.5C8.56593 9.55767 8.55926 9.618 8.55926 9.681C8.55926 10.134 8.41226 10.975 8.19676 11.9645C7.81976 11.8995 7.57376 11.7505 7.41676 11.596C7.30697 11.4865 7.22048 11.3558 7.16248 11.212C7.10448 11.0681 7.07617 10.9141 7.07926 10.759C7.07966 10.5999 7.11169 10.4425 7.17349 10.2958C7.2353 10.1492 7.32564 10.0164 7.43926 9.905ZM8.25026 19.5075V21.2485C8.25039 21.4306 8.31677 21.6064 8.437 21.7432C8.55724 21.8799 8.72312 21.9683 8.9037 21.9917C9.08428 22.0152 9.26723 21.9721 9.4184 21.8706C9.56957 21.7691 9.67864 21.616 9.72526 21.44L10.1828 19.71C9.53556 19.6755 8.89056 19.6079 8.25026 19.5075ZM11.8173 19.7065L12.2753 21.44C12.3219 21.616 12.431 21.7691 12.5821 21.8706C12.7333 21.9721 12.9162 22.0152 13.0968 21.9917C13.2774 21.9683 13.4433 21.8799 13.5635 21.7432C13.6838 21.6064 13.7501 21.4306 13.7503 21.2485V19.5005C13.0678 19.604 12.4353 19.6735 11.8173 19.7065Z" fill="black"/>
</svg>
