<svg width="24" height="24" viewBox="0 0 24 24" fill="none" xmlns="http://www.w3.org/2000/svg">
<path d="M11 6.5C11.5967 6.5 12.169 6.26295 12.591 5.84099C13.0129 5.41903 13.25 4.84674 13.25 4.25C13.25 3.65326 13.0129 3.08097 12.591 2.65901C12.169 2.23705 11.5967 2 11 2C10.4033 2 9.83097 2.23705 9.40901 2.65901C8.98705 3.08097 8.75 3.65326 8.75 4.25C8.75 4.84674 8.98705 5.41903 9.40901 5.84099C9.83097 6.26295 10.4033 6.5 11 6.5ZM17.5 12.5C17.1022 12.5 16.7206 12.658 16.4393 12.9393C16.158 13.2206 16 13.6022 16 14V14.1715C16 14.3041 16.0527 14.4313 16.1464 14.5251C16.2402 14.6188 16.3674 14.6715 16.5 14.6715C16.6326 14.6715 16.7598 14.6188 16.8536 14.5251C16.9473 14.4313 17 14.3041 17 14.1715V14C17 13.8674 17.0527 13.7402 17.1464 13.6464C17.2402 13.5527 17.3674 13.5 17.5 13.5C17.6326 13.5 17.7598 13.5527 17.8536 13.6464C17.9473 13.7402 18 13.8674 18 14V21.473C18 21.6056 18.0527 21.7328 18.1464 21.8266C18.2402 21.9203 18.3674 21.973 18.5 21.973C18.6326 21.973 18.7598 21.9203 18.8536 21.8266C18.9473 21.7328 19 21.6056 19 21.473V14C19 13.6022 18.842 13.2206 18.5607 12.9393C18.2794 12.658 17.8978 12.5 17.5 12.5ZM14.8545 10.0895L14 9.7165L14.7975 10.055L14.8545 10.0895ZM15.4675 10.6205C15.2934 10.4113 15.0864 10.232 14.8545 10.0895L18 11.464V11.416V11.417C18.0475 11.967 17.6225 12.4505 17.0505 12.497C16.4835 12.542 15.9845 12.14 15.93 11.5965V11.5955L15.9225 11.5525C15.9074 11.4791 15.8882 11.4067 15.865 11.3355C15.7773 11.0749 15.6426 10.8325 15.4675 10.6205Z" fill="black"/>
<path fill-rule="evenodd" clip-rule="evenodd" d="M18.0003 11.4155L14.7978 10.0555C14.547 9.90973 14.2791 9.79569 14.0003 9.716V21C14.0002 21.2565 13.9015 21.5032 13.7246 21.689C13.5478 21.8749 13.3063 21.9856 13.0501 21.9984C12.7939 22.0112 12.5425 21.925 12.3481 21.7577C12.1536 21.5904 12.0309 21.3547 12.0053 21.0995L11.5053 16.0995C11.5019 16.0664 11.5003 16.0332 11.5003 16H10.5003C10.5003 16.0333 10.4986 16.0665 10.4953 16.0995L9.99526 21.0995C9.96964 21.3547 9.84691 21.5904 9.65245 21.7577C9.45798 21.925 9.20666 22.0112 8.95045 21.9984C8.69424 21.9856 8.45274 21.8749 8.27589 21.689C8.09904 21.5032 8.00036 21.2565 8.00026 21V13.9595C7.16076 13.848 6.45526 13.5105 5.93226 12.997C5.63227 12.7035 5.39498 12.3522 5.23478 11.9644C5.07457 11.5765 4.99479 11.1601 5.00026 10.7405C5.00452 10.3222 5.09154 9.90883 5.25631 9.52429C5.42107 9.13975 5.66032 8.79163 5.96026 8.5C6.60526 7.8705 7.52476 7.5 8.62776 7.5H12.2878C14.7743 7.5 16.2598 8.361 17.0978 9.3795C17.4277 9.77876 17.681 10.2356 17.8448 10.727C17.9178 10.947 17.9748 11.1735 17.9993 11.4035V11.411L18.0003 11.414V11.4155ZM7.41576 11.5965C7.54426 11.7225 7.73126 11.8445 8.00026 11.9205V9.585C7.75026 9.661 7.56826 9.7795 7.43876 9.9055C7.32514 10.0169 7.2348 10.1497 7.17299 10.2963C7.11119 10.443 7.07916 10.6004 7.07876 10.7595C7.07576 11.0795 7.19476 11.3795 7.41576 11.5965Z" fill="black"/>
</svg>
