<svg width="81" height="80" viewBox="0 0 81 80" fill="none" xmlns="http://www.w3.org/2000/svg">
<ellipse cx="40.5" cy="40" rx="40.5" ry="40" fill="white"/>
<path d="M40.5 5C45.2988 5 49.8867 5.92448 54.2637 7.77344C58.6406 9.6224 62.4111 12.1094 65.5752 15.2344C68.7393 18.3594 71.2573 22.0833 73.1294 26.4062C75.0015 30.7292 75.9375 35.2604 75.9375 40C75.9375 44.7135 75.0081 49.2318 73.1492 53.5547C71.2903 57.8776 68.7788 61.6016 65.6147 64.7266C62.4507 67.8516 58.6802 70.3451 54.3032 72.207C49.9263 74.069 45.3252 75 40.5 75C35.6748 75 31.0737 74.0755 26.6968 72.2266C22.3198 70.3776 18.5559 67.8841 15.405 64.7461C12.2542 61.6081 9.74268 57.8841 7.87061 53.5742C5.99854 49.2643 5.0625 44.7396 5.0625 40C5.0625 35.2604 5.99854 30.7292 7.87061 26.4062C9.74268 22.0833 12.2607 18.3594 15.4248 15.2344C18.5889 12.1094 22.3594 9.6224 26.7363 7.77344C31.1133 5.92448 35.7012 5 40.5 5ZM64.9819 57.7734C68.9106 52.4349 70.875 46.5104 70.875 40C70.875 35.9375 70.0708 32.0573 68.4624 28.3594C66.854 24.6615 64.6919 21.4714 61.9761 18.7891C59.2603 16.1068 56.0303 13.9714 52.2861 12.3828C48.542 10.7943 44.6133 10 40.5 10C36.3867 10 32.458 10.7943 28.7139 12.3828C24.9697 13.9714 21.7397 16.1068 19.0239 18.7891C16.3081 21.4714 14.146 24.6615 12.5376 28.3594C10.9292 32.0573 10.125 35.9375 10.125 40C10.125 46.5104 12.0894 52.4349 16.0181 57.7734C17.7583 49.2578 21.7925 45 28.1206 45C31.5747 48.3333 35.7012 50 40.5 50C45.2988 50 49.4253 48.3333 52.8794 45C59.2075 45 63.2417 49.2578 64.9819 57.7734ZM55.6875 32.5C55.6875 28.3594 54.2043 24.8242 51.238 21.8945C48.2717 18.9648 44.6924 17.5 40.5 17.5C36.3076 17.5 32.7283 18.9648 29.762 21.8945C26.7957 24.8242 25.3125 28.3594 25.3125 32.5C25.3125 36.6406 26.7957 40.1758 29.762 43.1055C32.7283 46.0352 36.3076 47.5 40.5 47.5C44.6924 47.5 48.2717 46.0352 51.238 43.1055C54.2043 40.1758 55.6875 36.6406 55.6875 32.5Z" fill="black"/>
</svg>
