<svg width="46" height="46" viewBox="0 0 46 46" fill="none" xmlns="http://www.w3.org/2000/svg">
<path d="M0 0V20.5362H20.9036V0H0ZM25.0964 0V20.5362H46V0H25.0964ZM4.16277 4.0896H16.7409V16.4466H4.16277V4.0896ZM29.2591 4.0896H41.8372V16.4466H29.2591V4.0896ZM8.35548 8.26744V12.357H12.5781V8.26744H8.35548ZM33.4219 8.26744V12.357H37.5846V8.26744H33.4219ZM0 24.6553V45.1915H20.9036V24.6553H0ZM25.0964 24.6553V45.1915H29.2592V32.8933H33.422V36.9829H46V24.6553H41.8372V28.7449H37.5846V24.6553H25.0964ZM4.16277 28.7448H16.7409V41.1019H4.16277V28.7448ZM8.35548 32.8344V36.9829H12.5781V32.8344H8.35548ZM33.4219 41.1019V45.1915H37.5846V41.1019H33.4219ZM41.8372 41.1019V45.1915H46V41.1019H41.8372Z" fill="white"/>
</svg>
