<svg width="70" height="90" viewBox="0 0 70 90" fill="none" xmlns="http://www.w3.org/2000/svg">
<g opacity="0.7">
<path d="M28.6355 66.8182H54.09V73.1818H28.6355V66.8182ZM15.9082 66.8182H22.2718V73.1818H15.9082V66.8182ZM28.6355 50.9091H54.09V57.2727H28.6355V50.9091ZM15.9082 50.9091H22.2718V57.2727H15.9082V50.9091ZM28.6355 35H54.09V41.3636H28.6355V35ZM15.9082 35H22.2718V41.3636H15.9082V35Z" fill="#1600DF"/>
<path d="M63.6364 9.54545H54.0909V6.36364C54.0909 4.6759 53.4205 3.05728 52.227 1.86387C51.0336 0.670452 49.415 0 47.7273 0H22.2727C20.585 0 18.9664 0.670452 17.773 1.86387C16.5795 3.05728 15.9091 4.6759 15.9091 6.36364V9.54545H6.36364C4.6759 9.54545 3.05728 10.2159 1.86387 11.4093C0.670452 12.6027 0 14.2213 0 15.9091V82.7273C0 84.415 0.670452 86.0336 1.86387 87.227C3.05728 88.4205 4.6759 89.0909 6.36364 89.0909H63.6364C65.3241 89.0909 66.9427 88.4205 68.1361 87.227C69.3295 86.0336 70 84.415 70 82.7273V15.9091C70 14.2213 69.3295 12.6027 68.1361 11.4093C66.9427 10.2159 65.3241 9.54545 63.6364 9.54545ZM22.2727 6.36364H47.7273V19.0909H22.2727V6.36364ZM63.6364 82.7273H6.36364V15.9091H15.9091V25.4545H54.0909V15.9091H63.6364V82.7273Z" fill="#1600DF"/>
</g>
</svg>
