<svg width="30" height="30" viewBox="0 0 40 45" fill="none" xmlns="http://www.w3.org/2000/svg">
<path d="M31.3806 32.1423L39.5117 24.3016C40.1628 23.6738 40.1628 22.6563 39.5117 22.0285L37.1545 19.7555C36.5035 19.1277 35.4483 19.1277 34.7972 19.7555L26.6661 27.5962L17.9205 19.1628C22.8443 18.5622 26.6661 14.5534 26.6661 9.6427C26.6661 4.31712 22.1891 0 16.6663 0H1.66663C0.745819 0 0 0.719184 0 1.60712V27.321C0 28.2089 0.745819 28.9281 1.66663 28.9281H4.9999C5.92072 28.9281 6.66654 28.2089 6.66654 27.321V19.2854H8.61962L21.9527 32.1423L13.8216 39.983C13.1706 40.6108 13.1706 41.6283 13.8216 42.2561L16.1789 44.5292C16.8299 45.1569 17.8851 45.1569 18.5361 44.5292L26.6661 36.6874L34.7972 44.5282C35.4483 45.1559 36.5035 45.1559 37.1545 44.5282L39.5117 42.2551C40.1628 41.6273 40.1628 40.6098 39.5117 39.982L31.3806 32.1423ZM6.66654 6.42846H16.6663C18.5038 6.42846 19.9996 7.87085 19.9996 9.6427C19.9996 11.4145 18.5038 12.8569 16.6663 12.8569H6.66654V6.42846Z" fill="white"/>
</svg>
