<svg width="26" height="24" viewBox="0 0 26 24" fill="none" xmlns="http://www.w3.org/2000/svg">
<path fill-rule="evenodd" clip-rule="evenodd" d="M11.6383 0.96875C9.86995 0.968889 8.12731 1.35986 6.55574 2.10905C4.98417 2.85824 3.62923 3.94392 2.60397 5.27551C1.57871 6.6071 0.912868 8.14599 0.661984 9.76379C0.411101 11.3816 0.582455 13.0314 1.16175 14.5755C1.74105 16.1197 2.71149 17.5134 3.9921 18.6404C5.27272 19.7674 6.82638 20.595 8.52347 21.0542C10.2205 21.5134 12.0118 21.5908 13.7479 21.2801C15.4839 20.9693 17.1144 20.2793 18.5033 19.2677L23.2678 23.6712C23.5138 23.8909 23.8434 24.0124 24.1855 24.0097C24.5275 24.0069 24.8548 23.8801 25.0967 23.6566C25.3385 23.433 25.4757 23.1306 25.4787 22.8144C25.4817 22.4983 25.3502 22.1937 25.1125 21.9663L20.348 17.5627C21.637 16.0514 22.4396 14.2353 22.6639 12.3221C22.8882 10.4089 22.5252 8.47599 21.6164 6.74457C20.7076 5.01315 19.2898 3.55317 17.5252 2.53172C15.7605 1.51028 13.7204 0.968621 11.6383 0.96875ZM3.15813 11.2179C3.15813 9.13925 4.05157 7.14573 5.64191 5.6759C7.23224 4.20606 9.38919 3.38032 11.6383 3.38032C13.8873 3.38032 16.0443 4.20606 17.6346 5.6759C19.225 7.14573 20.1184 9.13925 20.1184 11.2179C20.1184 13.2966 19.225 15.2901 17.6346 16.7599C16.0443 18.2298 13.8873 19.0555 11.6383 19.0555C9.38919 19.0555 7.23224 18.2298 5.64191 16.7599C4.05157 15.2901 3.15813 13.2966 3.15813 11.2179Z" fill="black"/>
</svg>
