<svg width="24" height="24" viewBox="0 0 24 24" fill="none" xmlns="http://www.w3.org/2000/svg">
<path d="M10.768 5.25H13.232C14.045 5.25 14.701 5.25 15.232 5.293C15.778 5.338 16.258 5.433 16.702 5.659C17.4081 6.01837 17.9822 6.59214 18.342 7.298C18.568 7.742 18.662 8.222 18.707 8.768C18.75 9.299 18.75 9.955 18.75 10.768V13.232C18.75 14.045 18.75 14.701 18.707 15.232C18.662 15.778 18.567 16.258 18.341 16.702C17.9816 17.4081 17.4079 17.9822 16.702 18.342C16.258 18.568 15.778 18.662 15.232 18.707C14.701 18.75 14.045 18.75 13.232 18.75H9.622C7.617 18.75 6.612 16.326 8.03 14.909L12.44 10.5H10.875C10.6761 10.5 10.4853 10.421 10.3447 10.2803C10.204 10.1397 10.125 9.94891 10.125 9.75C10.125 9.55109 10.204 9.36032 10.3447 9.21967C10.4853 9.07902 10.6761 9 10.875 9H14.25C14.4489 9 14.6397 9.07902 14.7803 9.21967C14.921 9.36032 15 9.55109 15 9.75V13.125C15 13.3239 14.921 13.5147 14.7803 13.6553C14.6397 13.796 14.4489 13.875 14.25 13.875C14.0511 13.875 13.8603 13.796 13.7197 13.6553C13.579 13.5147 13.5 13.3239 13.5 13.125V11.561L9.091 15.97C8.98624 16.0749 8.91492 16.2085 8.88603 16.3539C8.85715 16.4993 8.872 16.65 8.92871 16.7869C8.98542 16.9239 9.08145 17.041 9.20467 17.1234C9.32788 17.2058 9.47276 17.2499 9.621 17.25H13.2C14.053 17.25 14.647 17.25 15.11 17.212C15.563 17.174 15.824 17.105 16.022 17.005C16.445 16.789 16.789 16.445 17.005 16.022C17.105 15.824 17.175 15.563 17.212 15.109C17.249 14.647 17.25 14.053 17.25 13.2V10.8C17.25 9.948 17.25 9.353 17.212 8.89C17.174 8.437 17.105 8.176 17.005 7.979C16.7895 7.55541 16.4454 7.21095 16.022 6.995C15.824 6.895 15.563 6.825 15.109 6.788C14.647 6.751 14.053 6.75 13.2 6.75H10.8C9.948 6.75 9.353 6.75 8.89 6.788C8.437 6.825 8.176 6.895 7.979 6.995C7.55526 7.21078 7.21078 7.55526 6.995 7.979C6.895 8.176 6.825 8.437 6.788 8.891C6.751 9.353 6.75 9.948 6.75 10.8V13.5C6.75 13.6989 6.67098 13.8897 6.53033 14.0303C6.38968 14.171 6.19891 14.25 6 14.25C5.80109 14.25 5.61032 14.171 5.46967 14.0303C5.32902 13.8897 5.25 13.6989 5.25 13.5V10.768C5.25 9.955 5.25 9.299 5.293 8.768C5.338 8.222 5.433 7.742 5.659 7.298C6.01837 6.59192 6.59214 6.0178 7.298 5.658C7.742 5.432 8.222 5.338 8.768 5.293C9.299 5.25 9.955 5.25 10.768 5.25Z" fill="#551A8B"/>
</svg>
