<svg width="28" height="28" viewBox="0 0 28 28" fill="none" xmlns="http://www.w3.org/2000/svg">
<path d="M14.0002 16.7998C13.2576 16.7998 12.5454 16.5048 12.0203 15.9797C11.4952 15.4546 11.2002 14.7424 11.2002 13.9998C11.2002 13.2572 11.4952 12.545 12.0203 12.0199C12.5454 11.4948 13.2576 11.1998 14.0002 11.1998C14.7428 11.1998 15.455 11.4948 15.9801 12.0199C16.5052 12.545 16.8002 13.2572 16.8002 13.9998C16.8002 14.7424 16.5052 15.4546 15.9801 15.9797C15.455 16.5048 14.7428 16.7998 14.0002 16.7998ZM14.0002 8.39981C13.2576 8.39981 12.5454 8.10481 12.0203 7.5797C11.4952 7.0546 11.2002 6.34241 11.2002 5.5998C11.2002 4.8572 11.4952 4.14501 12.0203 3.61991C12.5454 3.0948 13.2576 2.7998 14.0002 2.7998C14.7428 2.7998 15.455 3.0948 15.9801 3.61991C16.5052 4.14501 16.8002 4.8572 16.8002 5.5998C16.8002 6.34241 16.5052 7.0546 15.9801 7.5797C15.455 8.10481 14.7428 8.39981 14.0002 8.39981ZM14.0002 25.1998C13.2576 25.1998 12.5454 24.9048 12.0203 24.3797C11.4952 23.8546 11.2002 23.1424 11.2002 22.3998C11.2002 21.6572 11.4952 20.945 12.0203 20.4199C12.5454 19.8948 13.2576 19.5998 14.0002 19.5998C14.7428 19.5998 15.455 19.8948 15.9801 20.4199C16.5052 20.945 16.8002 21.6572 16.8002 22.3998C16.8002 23.1424 16.5052 23.8546 15.9801 24.3797C15.455 24.9048 14.7428 25.1998 14.0002 25.1998Z" fill="black"/>
</svg>
