<svg width="24" height="24" viewBox="0 0 24 24" fill="none" xmlns="http://www.w3.org/2000/svg">
<g clip-path="url(#clip0_367_698)">
<path d="M12 0C5.37258 0 0 5.37258 0 12C0 18.6274 5.37258 24 12 24C18.6274 24 24 18.6274 24 12C24 5.37258 18.6274 0 12 0ZM11.9757 6.6725C13.0825 6.68706 13.9993 7.58812 14.3039 8.73632C14.4201 9.2048 14.4332 9.68008 14.3161 10.1763C14.1396 10.8749 13.7861 11.5572 13.1276 11.9764L14.0874 12.4324L16.3678 13.5365C16.5918 13.6325 16.7036 13.8244 16.7036 14.1125V16.3199C16.7036 16.7752 16.7398 17.1678 16.1755 17.3283H7.77584C7.23316 17.3204 7.21068 16.7708 7.2234 16.3199V14.1125C7.2234 13.8245 7.34358 13.6242 7.58358 13.5121L9.9354 12.4324L10.848 12C10.432 11.728 10.104 11.3523 9.86398 10.8723C9.57578 10.2387 9.46152 9.41606 9.67174 8.66412C9.9375 7.64488 10.7698 6.72916 11.9757 6.6725ZM8.06382 7.6801C8.41584 7.6801 8.73556 7.7844 9.02354 7.9924C8.94368 8.21636 8.87604 8.45258 8.81988 8.7006C8.7639 8.94856 8.73554 9.2082 8.73554 9.48022C8.73551 9.88022 8.79149 10.2642 8.90346 10.6322C9.01544 11.0002 9.17566 11.3366 9.38372 11.6406C9.2877 11.7686 9.15998 11.8804 8.99996 11.9764L7.22336 12.7925C6.98336 12.9205 6.79138 13.1001 6.64738 13.3321C6.50338 13.5641 6.43158 13.8245 6.43158 14.1125V16.3199H4.68006C4.42596 16.316 4.25434 16.0599 4.24768 15.7926V13.7044C4.24768 13.4644 4.33536 13.3042 4.51136 13.2242L7.17554 12C6.4872 11.5769 6.15512 10.8121 6.12008 9.96048C6.1322 8.91124 6.81992 7.76726 8.06382 7.6801ZM15.9354 7.6801C17.0412 7.69758 17.84 8.79392 17.88 9.9605C17.8739 10.7324 17.5726 11.4778 16.8716 11.9765L19.4879 13.2242C19.6639 13.3202 19.7515 13.4804 19.7515 13.7044V15.7926C19.7489 16.0404 19.6151 16.2946 19.3199 16.3199H17.5198V14.1125C17.5198 13.8245 17.448 13.5641 17.304 13.3321C17.16 13.1 16.968 12.9205 16.728 12.7925C15.9819 12.4458 15.1251 12.1969 14.5676 11.6163C14.9836 10.9763 15.1915 10.2642 15.1915 9.48022C15.1915 8.98422 15.1038 8.49594 14.9278 8.01594C15.2169 7.82512 15.559 7.68546 15.9354 7.6801Z" fill="#0E868C"/>
</g>
<defs>
<clipPath id="clip0_367_698">
<rect width="24" height="24" fill="white"/>
</clipPath>
</defs>
</svg>
