<svg width="36" height="36" viewBox="0 0 36 36" fill="none" xmlns="http://www.w3.org/2000/svg">
<path d="M19 0C17.279 0 15.657 0.406 14.207 1.111C13.8086 1.03917 13.4048 1.00203 13 1C11.1435 1 9.36301 1.7375 8.05025 3.05025C6.7375 4.36301 6 6.14348 6 8V20H6.018C6.201 26.467 11.489 31.656 18 31.656C24.511 31.656 29.799 26.467 29.982 20H30V11C30 4.925 25.075 0 19 0Z" fill="#FFAC33"/>
<path d="M27 27H9C7.93913 27 6.92172 27.4214 6.17157 28.1716C5.42143 28.9217 5 29.9391 5 31V36H31V31C31 29.9391 30.5786 28.9217 29.8284 28.1716C29.0783 27.4214 28.0609 27 27 27Z" fill="#9268CA"/>
<path d="M15 22V28C15 28.7956 15.3161 29.5587 15.8787 30.1213C16.4413 30.6839 17.2044 31 18 31C18.7956 31 19.5587 30.6839 20.1213 30.1213C20.6839 29.5587 21 28.7956 21 28V22H15Z" fill="#FFDC5D"/>
<path d="M9 5V17C9 21.971 13.029 26 18 26C22.971 26 27 21.971 27 17V5H9Z" fill="#FFDC5D"/>
<path d="M27.999 5L26 4H8V11C14 11 14 5 14 5C14 5 16 12 28 12L27.999 5Z" fill="#FFAC33"/>
<path d="M9 32H10V36H9V32ZM26 32H27V36H26V32Z" fill="#7450A8"/>
<path d="M18 24C18.5523 24 19 23.5523 19 23C19 22.4477 18.5523 22 18 22C17.4477 22 17 22.4477 17 23C17 23.5523 17.4477 24 18 24Z" fill="#DF1F32"/>
<path d="M14 16C13.7348 16 13.4804 15.8946 13.2929 15.7071C13.1054 15.5196 13 15.2652 13 15V14C13 13.7348 13.1054 13.4804 13.2929 13.2929C13.4804 13.1054 13.7348 13 14 13C14.2652 13 14.5196 13.1054 14.7071 13.2929C14.8946 13.4804 15 13.7348 15 14V15C15 15.2652 14.8946 15.5196 14.7071 15.7071C14.5196 15.8946 14.2652 16 14 16ZM22 16C21.7348 16 21.4804 15.8946 21.2929 15.7071C21.1054 15.5196 21 15.2652 21 15V14C21 13.7348 21.1054 13.4804 21.2929 13.2929C21.4804 13.1054 21.7348 13 22 13C22.2652 13 22.5196 13.1054 22.7071 13.2929C22.8946 13.4804 23 13.7348 23 14V15C23 15.2652 22.8946 15.5196 22.7071 15.7071C22.5196 15.8946 22.2652 16 22 16Z" fill="#662113"/>
<path d="M19 19.5H17C16.8674 19.5 16.7402 19.4473 16.6464 19.3536C16.5527 19.2598 16.5 19.1326 16.5 19C16.5 18.8674 16.5527 18.7402 16.6464 18.6464C16.7402 18.5527 16.8674 18.5 17 18.5H19C19.1326 18.5 19.2598 18.5527 19.3536 18.6464C19.4473 18.7402 19.5 18.8674 19.5 19C19.5 19.1326 19.4473 19.2598 19.3536 19.3536C19.2598 19.4473 19.1326 19.5 19 19.5Z" fill="#C1694F"/>
</svg>
