<svg width="36" height="36" viewBox="0 0 36 36" fill="none" xmlns="http://www.w3.org/2000/svg">
<path d="M27 27H9C7.93913 27 6.92172 27.4214 6.17157 28.1716C5.42143 28.9217 5 29.9391 5 31V36H31V31C31 29.9391 30.5786 28.9217 29.8284 28.1716C29.0783 27.4214 28.0609 27 27 27Z" fill="#4289C1"/>
<path d="M26 32H27V36H26V32ZM9 32H10V36H9V32Z" fill="#2A6797"/>
<path d="M9 5.93799V17C9 21.971 13.029 26 18 26C22.971 26 27 21.971 27 17V6.24999L9 5.93799Z" fill="#FFDC5D"/>
<path d="M18 24C18.5523 24 19 23.5523 19 23C19 22.4477 18.5523 22 18 22C17.4477 22 17 22.4477 17 23C17 23.5523 17.4477 24 18 24Z" fill="#C1694F"/>
<path d="M14 16C13.7348 16 13.4804 15.8946 13.2929 15.7071C13.1054 15.5196 13 15.2652 13 15V14C13 13.7348 13.1054 13.4804 13.2929 13.2929C13.4804 13.1054 13.7348 13 14 13C14.2652 13 14.5196 13.1054 14.7071 13.2929C14.8946 13.4804 15 13.7348 15 14V15C15 15.2652 14.8946 15.5196 14.7071 15.7071C14.5196 15.8946 14.2652 16 14 16ZM22 16C21.7348 16 21.4804 15.8946 21.2929 15.7071C21.1054 15.5196 21 15.2652 21 15V14C21 13.7348 21.1054 13.4804 21.2929 13.2929C21.4804 13.1054 21.7348 13 22 13C22.2652 13 22.5196 13.1054 22.7071 13.2929C22.8946 13.4804 23 13.7348 23 14V15C23 15.2652 22.8946 15.5196 22.7071 15.7071C22.5196 15.8946 22.2652 16 22 16Z" fill="#662113"/>
<path d="M19 19.5H17C16.8674 19.5 16.7402 19.4473 16.6464 19.3536C16.5527 19.2598 16.5 19.1326 16.5 19C16.5 18.8674 16.5527 18.7402 16.6464 18.6464C16.7402 18.5527 16.8674 18.5 17 18.5H19C19.1326 18.5 19.2598 18.5527 19.3536 18.6464C19.4473 18.7402 19.5 18.8674 19.5 19C19.5 19.1326 19.4473 19.2598 19.3536 19.3536C19.2598 19.4473 19.1326 19.5 19 19.5Z" fill="#C1694F"/>
<path d="M10.8475 13.715C10.8475 15.295 10.0475 16.576 9.05948 16.576C8.07148 16.576 7.27148 15.295 7.27148 13.715C7.27148 12.135 8.07248 10.854 9.05948 10.854C10.0465 10.854 10.8475 12.135 10.8475 13.715ZM28.7295 13.715C28.7295 15.295 27.9295 16.576 26.9415 16.576C25.9535 16.576 25.1535 15.295 25.1535 13.715C25.1535 12.135 25.9535 10.854 26.9415 10.854C27.9295 10.854 28.7295 12.135 28.7295 13.715Z" fill="#FFDC5D"/>
<path d="M18.0003 0.822998C10.9813 0.822998 7.86133 5.507 7.86133 9.411C7.86133 13.315 9.20433 14.397 9.42133 13.314C10.2013 9.411 12.5413 8.213 12.5413 8.213C17.2213 12.117 16.4413 8.994 16.4413 8.994C21.1203 13.678 18.7813 8.994 18.7813 8.994C20.3413 10.556 25.0203 10.556 25.0203 10.556C25.0203 10.556 25.8003 11.754 26.5793 13.315C27.3593 14.877 28.1393 13.315 28.1393 9.412C28.1393 5.507 24.2393 0.822998 18.0003 0.822998Z" fill="#FFAC33"/>
<path d="M15 24V28C15 28.7956 15.3161 29.5587 15.8787 30.1213C16.4413 30.6839 17.2044 31 18 31C18.7956 31 19.5587 30.6839 20.1213 30.1213C20.6839 29.5587 21 28.7956 21 28V24H15Z" fill="#FFDC5D"/>
</svg>
