<svg width="83" height="86" viewBox="0 0 83 86" fill="none" xmlns="http://www.w3.org/2000/svg">
<path d="M3.952 82L0.384 70.8H2.224L4.384 77.808C4.448 77.9787 4.50667 78.1813 4.56 78.416C4.61333 78.64 4.66133 78.8693 4.704 79.104C4.74667 79.3387 4.784 79.5573 4.816 79.76C4.85867 79.9627 4.896 80.128 4.928 80.256L4.464 80.24C4.624 79.6747 4.74667 79.2373 4.832 78.928C4.928 78.6187 5.00267 78.384 5.056 78.224C5.10933 78.0533 5.15733 77.9093 5.2 77.792L7.216 72.736H8.768L10.72 77.792C10.8267 78.048 10.9173 78.304 10.992 78.56C11.0773 78.8053 11.152 79.056 11.216 79.312C11.28 79.5573 11.3493 79.8187 11.424 80.096L11.008 80.208C11.0613 79.92 11.0987 79.696 11.12 79.536C11.152 79.3653 11.1787 79.2267 11.2 79.12C11.2213 79.0133 11.2427 78.912 11.264 78.816C11.2853 78.7093 11.3173 78.576 11.36 78.416C11.4133 78.256 11.4827 78.0373 11.568 77.76L13.696 70.8H15.552L11.984 82H10.784L7.824 74.992L7.968 75.056L5.12 82H3.952ZM15.6969 82L20.0329 70.8H21.7929L26.0969 82H24.2569L21.6969 75.248C21.6649 75.1733 21.6009 74.992 21.5049 74.704C21.4195 74.416 21.3182 74.096 21.2009 73.744C21.0835 73.392 20.9769 73.072 20.8809 72.784C20.7849 72.4853 20.7209 72.2933 20.6889 72.208L21.0569 72.192C20.9929 72.3733 20.9129 72.6027 20.8169 72.88C20.7315 73.1573 20.6355 73.4507 20.5289 73.76C20.4329 74.0693 20.3369 74.3627 20.2409 74.64C20.1449 74.9067 20.0649 75.1307 20.0009 75.312L17.4569 82H15.6969ZM17.6169 79.216L18.2569 77.552H23.3449L24.0809 79.216H17.6169ZM28.068 82V70.8H32.836C33.476 70.8 34.0627 70.96 34.596 71.28C35.14 71.5893 35.572 72.016 35.892 72.56C36.212 73.0933 36.372 73.696 36.372 74.368C36.372 74.976 36.212 75.5413 35.892 76.064C35.572 76.5867 35.1453 77.008 34.612 77.328C34.0787 77.6373 33.4867 77.792 32.836 77.792H29.796V82H28.068ZM34.724 82L31.876 76.944L33.652 76.544L36.82 82.016L34.724 82ZM29.796 76.128H32.996C33.3053 76.128 33.5827 76.0533 33.828 75.904C34.0733 75.744 34.2653 75.5307 34.404 75.264C34.5427 74.9867 34.612 74.6827 34.612 74.352C34.612 73.9787 34.5213 73.6533 34.34 73.376C34.1693 73.088 33.924 72.864 33.604 72.704C33.2947 72.544 32.9427 72.464 32.548 72.464H29.796V76.128ZM39.193 82V70.8H40.745L47.593 79.968L47.337 80.112C47.2943 79.8453 47.257 79.5573 47.225 79.248C47.193 78.928 47.161 78.592 47.129 78.24C47.1077 77.8773 47.0863 77.4987 47.065 77.104C47.0543 76.6987 47.0437 76.2773 47.033 75.84C47.0223 75.4027 47.017 74.9493 47.017 74.48V70.8H48.745V82H47.161L40.425 73.168L40.601 72.944C40.6543 73.5947 40.697 74.1493 40.729 74.608C40.7717 75.056 40.8037 75.44 40.825 75.76C40.857 76.0693 40.8783 76.3253 40.889 76.528C40.8997 76.72 40.905 76.88 40.905 77.008C40.9157 77.136 40.921 77.248 40.921 77.344V82H39.193ZM51.4645 82V80.4H53.2725V72.4H51.4645V70.8H56.8085V72.4H55.0005V80.4H56.8085V82H51.4645ZM59.5211 82V70.8H61.0731L67.9211 79.968L67.6651 80.112C67.6225 79.8453 67.5851 79.5573 67.5531 79.248C67.5211 78.928 67.4891 78.592 67.4571 78.24C67.4358 77.8773 67.4145 77.4987 67.3931 77.104C67.3825 76.6987 67.3718 76.2773 67.3611 75.84C67.3505 75.4027 67.3451 74.9493 67.3451 74.48V70.8H69.0731V82H67.4891L60.7531 73.168L60.9291 72.944C60.9825 73.5947 61.0251 74.1493 61.0571 74.608C61.0998 75.056 61.1318 75.44 61.1531 75.76C61.1851 76.0693 61.2065 76.3253 61.2171 76.528C61.2278 76.72 61.2331 76.88 61.2331 77.008C61.2438 77.136 61.2491 77.248 61.2491 77.344V82H59.5211ZM77.2166 82.16C76.406 82.16 75.6486 82.016 74.9446 81.728C74.2406 81.4293 73.622 81.0187 73.0886 80.496C72.5553 79.9733 72.1393 79.3653 71.8406 78.672C71.5526 77.968 71.4086 77.2107 71.4086 76.4C71.4086 75.6 71.5526 74.8533 71.8406 74.16C72.1393 73.4667 72.55 72.864 73.0726 72.352C73.606 71.8293 74.2246 71.424 74.9286 71.136C75.6326 70.848 76.39 70.704 77.2006 70.704C77.766 70.704 78.3153 70.784 78.8486 70.944C79.3926 71.104 79.8833 71.328 80.3206 71.616C80.758 71.904 81.1153 72.2347 81.3926 72.608L80.2726 73.776C79.9526 73.4667 79.622 73.2107 79.2806 73.008C78.95 72.8053 78.6086 72.6507 78.2566 72.544C77.9046 72.4373 77.5526 72.384 77.2006 72.384C76.6246 72.384 76.0913 72.4853 75.6006 72.688C75.1206 72.8907 74.694 73.1733 74.3206 73.536C73.958 73.8987 73.6753 74.3253 73.4726 74.816C73.27 75.296 73.1686 75.824 73.1686 76.4C73.1686 76.9547 73.2753 77.4827 73.4886 77.984C73.702 78.4747 73.9953 78.9067 74.3686 79.28C74.7526 79.6533 75.19 79.9467 75.6806 80.16C76.182 80.3733 76.71 80.48 77.2646 80.48C77.6806 80.48 78.0753 80.4213 78.4486 80.304C78.822 80.176 79.1526 80 79.4406 79.776C79.7286 79.552 79.9526 79.296 80.1126 79.008C80.2726 78.7093 80.3526 78.3947 80.3526 78.064V77.744L80.5926 77.968H77.1686V76.256H82.1286C82.15 76.3733 82.166 76.4907 82.1766 76.608C82.1873 76.7147 82.1926 76.8213 82.1926 76.928C82.2033 77.024 82.2086 77.12 82.2086 77.216C82.2086 77.952 82.0806 78.624 81.8246 79.232C81.5686 79.8293 81.2113 80.3467 80.7526 80.784C80.3046 81.2213 79.7766 81.5627 79.1686 81.808C78.5713 82.0427 77.9206 82.16 77.2166 82.16Z" fill="#FF0000"/>
<path d="M75.9998 50.8676L48.6731 3.78837C47.9902 2.63495 47.0154 1.67859 45.8451 1.01408C44.6749 0.349577 43.3499 0 42.0016 0C40.6532 0 39.3282 0.349577 38.158 1.01408C36.9878 1.67859 36.0129 2.63495 35.33 3.78837L8.0033 50.8676C7.34626 51.9832 7 53.2521 7 54.5442C7 55.8363 7.34626 57.1051 8.0033 58.2207C8.67742 59.3811 9.65062 60.3427 10.823 61.0068C11.9954 61.6708 13.3249 62.0135 14.6748 61.9996H69.3283C70.6772 62.0124 72.0053 61.6692 73.1765 61.0052C74.3477 60.3412 75.32 59.3802 75.9936 58.2207C76.6516 57.1057 76.9989 55.8371 77 54.545C77.0011 53.2529 76.6559 51.9838 75.9998 50.8676ZM71.6657 55.7377C71.4274 56.1408 71.0854 56.4738 70.6747 56.7026C70.264 56.9314 69.7993 57.0477 69.3283 57.0396H14.6748C14.2038 57.0477 13.7392 56.9314 13.3284 56.7026C12.9177 56.4738 12.5757 56.1408 12.3375 55.7377C12.1217 55.3752 12.0078 54.962 12.0078 54.5411C12.0078 54.1201 12.1217 53.7069 12.3375 53.3445L39.6642 6.26524C39.9072 5.86402 40.2508 5.53202 40.6615 5.30153C41.0721 5.07104 41.536 4.94991 42.0078 4.94991C42.4797 4.94991 42.9435 5.07104 43.3542 5.30153C43.7648 5.53202 44.1084 5.86402 44.3514 6.26524L71.6782 53.3445C71.8921 53.708 72.0037 54.1218 72.0015 54.5428C71.9993 54.9637 71.8833 55.3763 71.6657 55.7377ZM39.5017 37.1998V24.8C39.5017 24.1422 39.7651 23.5114 40.2339 23.0464C40.7027 22.5813 41.3386 22.32 42.0016 22.32C42.6646 22.32 43.3004 22.5813 43.7692 23.0464C44.2381 23.5114 44.5014 24.1422 44.5014 24.8V37.1998C44.5014 37.8576 44.2381 38.4884 43.7692 38.9534C43.3004 39.4185 42.6646 39.6798 42.0016 39.6798C41.3386 39.6798 40.7027 39.4185 40.2339 38.9534C39.7651 38.4884 39.5017 37.8576 39.5017 37.1998ZM45.7514 48.3597C45.7514 49.0955 45.5314 49.8147 45.1194 50.4264C44.7074 51.0382 44.1217 51.515 43.4365 51.7965C42.7514 52.0781 41.9974 52.1518 41.27 52.0082C40.5426 51.8647 39.8745 51.5104 39.35 50.9901C38.8256 50.4699 38.4685 49.8071 38.3238 49.0855C38.1791 48.3639 38.2534 47.6159 38.5372 46.9362C38.821 46.2564 39.3016 45.6754 39.9183 45.2667C40.5349 44.8579 41.2599 44.6398 42.0016 44.6398C42.9961 44.6398 43.9498 45.0317 44.6531 45.7293C45.3563 46.4269 45.7514 47.3731 45.7514 48.3597Z" fill="#FF0000"/>
</svg>
