<svg width="24" height="24" viewBox="0 0 24 24" fill="none" xmlns="http://www.w3.org/2000/svg">
<g clip-path="url(#clip0_350_931)">
<path d="M11.9883 5.25C13.438 5.25 14.6133 4.07475 14.6133 2.625C14.6133 1.17525 13.438 0 11.9883 0C10.5385 0 9.36328 1.17525 9.36328 2.625C9.36328 4.07475 10.5385 5.25 11.9883 5.25Z" fill="black"/>
<path d="M18.4982 13.027L18.014 11.4141V11.4089L16.9612 7.89984H16.9589L16.8412 7.50375C16.712 7.06942 16.4461 6.68842 16.0829 6.41746C15.7197 6.14651 15.2787 6.00009 14.8256 6H9.20057C8.74739 5.99986 8.3063 6.14619 7.94306 6.41718C7.57983 6.68817 7.31391 7.0693 7.18495 7.50375L7.06729 7.89984H7.06448L6.01166 11.4089V11.4141L5.52557 13.027C5.37932 13.5141 5.63338 14.0423 6.11479 14.2055C6.23405 14.2461 6.36027 14.2622 6.48591 14.2529C6.61155 14.2437 6.73403 14.2092 6.84604 14.1515C6.95805 14.0938 7.05729 14.0142 7.13783 13.9173C7.21836 13.8204 7.27855 13.7083 7.31479 13.5877L8.51385 9.59156L8.61557 9.25266C8.64527 9.16983 8.70316 9.10009 8.77909 9.05563C8.85503 9.01117 8.94418 8.99483 9.03094 9.00947C9.11771 9.02411 9.19656 9.06879 9.25371 9.1357C9.31085 9.20261 9.34265 9.28748 9.34354 9.37547C9.34351 9.40083 9.34084 9.42613 9.33557 9.45094L7.28573 16.2848C7.25211 16.3968 7.24515 16.5151 7.26538 16.6303C7.28561 16.7454 7.33248 16.8542 7.40224 16.948C7.47201 17.0418 7.56274 17.1181 7.6672 17.1706C7.77166 17.2231 7.88694 17.2504 8.00385 17.2505H9.36323V22.6266C9.36323 23.3981 9.85682 24.0005 10.4882 24.0005C11.1196 24.0005 11.6132 23.3981 11.6132 22.6266V17.2505H12.3632V22.6266C12.3632 23.3981 12.8568 24.0005 13.4882 24.0005C14.1196 24.0005 14.6132 23.3981 14.6132 22.6266V17.2505H16.0195C16.1364 17.2505 16.2518 17.2232 16.3563 17.1707C16.4608 17.1182 16.5516 17.042 16.6214 16.9482C16.6912 16.8544 16.7381 16.7455 16.7584 16.6304C16.7787 16.5152 16.7717 16.3969 16.7381 16.2848L14.6878 9.45C14.6826 9.42549 14.6801 9.40051 14.6803 9.37547C14.6807 9.28721 14.7123 9.20195 14.7695 9.13469C14.8266 9.06743 14.9057 9.02248 14.9927 9.00776C15.0797 8.99303 15.1691 9.00947 15.2452 9.05418C15.3213 9.09889 15.3792 9.169 15.4087 9.25219L15.5104 9.59109L16.709 13.5872C16.7454 13.7077 16.8057 13.8196 16.8862 13.9163C16.9668 14.0129 17.066 14.0924 17.178 14.1499C17.2899 14.2075 17.4123 14.2419 17.5378 14.2511C17.6633 14.2603 17.7894 14.2441 17.9085 14.2036C18.3899 14.0423 18.644 13.5141 18.4982 13.027Z" fill="black"/>
</g>
<defs>
<clipPath id="clip0_350_931">
<rect width="24" height="24" fill="white"/>
</clipPath>
</defs>
</svg>
